# 3ds Max Wavefront OBJ Exporter v0.99 - (c)2007 guruware
# File Created: 10.04.2023 18:44:00

mtllib ZID.mtl

#
# object Plane002
#

v  -24.7833 29.9412 22.3679
v  -24.7833 0.0000 22.3679
v  -24.7833 0.0000 -27.6321
v  -24.7833 29.9412 -27.6321
v  25.2167 0.0000 -27.6321
v  25.2167 29.9412 -27.6321
# 6 vertices

vn 1.0000 -0.0000 -0.0000
vn 0.7071 -0.0000 0.7071
vn 0.0000 0.0000 1.0000
# 3 vertex normals

vt 1.7500 -0.0944 -0.7500
vt 1.7500 1.2598 -0.7500
vt -0.7500 1.2598 -0.7500
vt -0.7500 -0.0944 -0.7500
vt 1.7500 -0.0944 1.7500
vt 1.7500 1.2598 1.7500
vt -0.7500 1.2598 1.7500
vt -0.7500 -0.0944 1.7500
# 8 texture coords

o Plane002
g Plane002
usemtl Zid
s 1
f 1/1/1 2/2/1 3/3/2 4/4/2 
s off
f 4/5/2 3/6/2 5/7/3 6/8/3 
# 2 polygons

